<?xml version="1.0" encoding="utf-8"?>
<!-- Generator: Adobe Illustrator 26.1.0, SVG Export Plug-In . SVG Version: 6.00 Build 0)  -->
<svg version="1.1" id="Layer_1" xmlns="http://www.w3.org/2000/svg" xmlns:xlink="http://www.w3.org/1999/xlink" x="0px" y="0px"
	 viewBox="0 0 1920 1080" style="enable-background:new 0 0 1920 1080;" xml:space="preserve">
<style type="text/css">
	.st0{fill:#E9D6EA;}
	.st1{fill:#590B0B;}
</style>
<g>
	<rect x="0.5" y="0.5" class="st0" width="1919" height="1079"/>
	<path d="M1919,1v1078H1V1H1919 M1920,0H0v1080h1920V0L1920,0z"/>
</g>
<g>
	<path class="st1" d="M212.57,622.35c-10.8,4.8-29.1,8.7-53.4,8.7c-53.4,0-89.4-32.4-89.4-85.8c0-45.3,20.4-80.7,51-101.1
		c21-14.7,45.9-21.6,74.4-21.6c21.9,0,38.4,5.1,44.1,8.7l-11.7,35.1c-6-3-19.2-6.6-36.6-6.6s-33.9,5.4-46.2,15.6
		c-17.1,13.8-27.9,36.9-27.9,65.1c0,32.1,18,53.7,53.7,53.7c14.1,0,28.2-2.4,38.4-6.6L212.57,622.35z"/>
	<path class="st1" d="M386.87,538.35c0,53.7-36.6,93-87.6,93c-37.2,0-62.1-24.3-62.1-60.6c0-51,35.4-92.7,87.6-92.7
		C364.07,478.05,386.87,505.05,386.87,538.35z M281.87,569.85c0,17.1,8.4,28.5,23.4,28.5c23.7,0,36.9-34.5,36.9-59.7
		c0-13.5-5.7-27.9-23.1-27.9C294.17,510.75,281.57,547.05,281.87,569.85z"/>
	<path class="st1" d="M399.76,628.05l18.3-99c3.3-18.6,5.7-34.8,7.5-47.7h37.2l-2.7,23.7h0.6c13.2-18.9,31.2-27,50.1-27
		c23.4,0,33.6,14.7,34.8,27.6c13.2-18.9,31.5-27.6,50.4-27.6c22.8,0,36,14.4,36,39.3c0,6.3-1.2,17.7-2.7,25.2l-15.9,85.5h-41.7
		l14.7-80.1c1.2-6,2.1-12.3,2.1-18c0-10.2-4.5-17.4-14.7-17.4c-14.4,0-28.5,19.5-34.2,48.9l-12.3,66.6h-41.7l15-80.7
		c1.2-6,2.1-11.7,2.1-16.8c0-9.9-3.3-18-13.8-18c-14.7,0-30,20.7-35.4,49.5l-12,66H399.76z"/>
	<path class="st1" d="M649.06,628.05l27.9-146.7h43.2l-27.9,146.7H649.06z M682.96,442.05c0.3-14.7,11.7-24.6,24.9-24.6
		c12.6,0,21.6,8.4,21.6,21.3c0,15.3-11.7,24.3-25.5,24.3C691.96,463.05,682.96,454.95,682.96,442.05z"/>
	<path class="st1" d="M728.56,628.05l18.6-99c3.6-18.6,6-34.8,7.8-47.7h38.4l-3,24.3h0.6c13.8-19.2,32.1-27.6,51.6-27.6
		c24,0,37.5,14.7,37.5,39.9c0,6.6-1.2,17.7-2.4,24.9l-16.2,85.2h-43.2l15.3-81.3c0.9-5.1,1.5-11.1,1.5-16.5
		c0-10.2-3.6-17.4-14.4-17.4c-14.1,0-30.6,17.7-36.6,50.1l-12.3,65.1H728.56z"/>
	<path class="st1" d="M907.06,648.45c8.1,4.8,26.1,8.1,38.4,8.1c21.6,0,37.8-9.6,43.8-39l2.4-12.3h-0.6
		c-11.4,14.7-24.6,21.6-42,21.6c-29.1,0-46.8-23.7-47.1-52.2c0-48.6,34.5-96.6,98.4-96.6c20.7,0,39,3.6,54.3,10.2l-22.2,120.9
		c-5.1,27-13.2,51-30.9,65.1c-15.9,12.6-37.2,16.5-56.7,16.5s-37.8-3.6-47.7-9.3L907.06,648.45z M1007.86,513.75
		c-3.3-1.5-9.6-2.7-15.6-2.7c-26.1,0-44.7,29.1-44.7,57c0,14.7,6.6,25.5,19.8,25.5c14.1,0,28.5-15.6,33-40.5L1007.86,513.75z"/>
	<path class="st1" d="M1130.55,581.25c12,7.2,29.1,12.9,47.7,12.9c16.8,0,32.1-7.8,32.1-23.7c0-11.4-8.7-18.9-27.3-28.5
		c-21.6-11.7-42-27.3-42-53.7c0-40.8,35.7-65.7,79.8-65.7c24.6,0,39,5.4,47.7,10.2l-13.5,36c-6.6-3.6-21-9.3-37.8-9
		c-20.1,0-30.6,10.2-30.6,21.3c0,11.7,12.3,18.9,29.4,28.5c24.6,12.9,40.2,29.4,40.2,53.4c0,45-37.2,68.1-82.2,68.1
		c-28.2,0-48.3-7.2-57.9-14.4L1130.55,581.25z"/>
	<path class="st1" d="M1429.95,538.35c0,53.7-36.6,93-87.6,93c-37.2,0-62.1-24.3-62.1-60.6c0-51,35.4-92.7,87.6-92.7
		C1407.15,478.05,1429.95,505.05,1429.95,538.35z M1324.95,569.85c0,17.1,8.4,28.5,23.4,28.5c23.7,0,36.9-34.5,36.9-59.7
		c0-13.5-5.7-27.9-23.1-27.9C1337.25,510.75,1324.65,547.05,1324.95,569.85z"/>
	<path class="st1" d="M1599.14,538.35c0,53.7-36.6,93-87.6,93c-37.2,0-62.1-24.3-62.1-60.6c0-51,35.4-92.7,87.6-92.7
		C1576.34,478.05,1599.14,505.05,1599.14,538.35z M1494.14,569.85c0,17.1,8.4,28.5,23.4,28.5c23.7,0,36.9-34.5,36.9-59.7
		c0-13.5-5.7-27.9-23.1-27.9C1506.44,510.75,1493.84,547.05,1494.14,569.85z"/>
	<path class="st1" d="M1612.04,628.05l18.6-99c3.6-18.6,6-34.8,7.8-47.7h38.4l-3,24.3h0.6c13.8-19.2,32.1-27.6,51.6-27.6
		c24,0,37.5,14.7,37.5,39.9c0,6.6-1.2,17.7-2.4,24.9l-16.2,85.2h-43.2l15.3-81.3c0.9-5.1,1.5-11.1,1.5-16.5
		c0-10.2-3.6-17.4-14.4-17.4c-14.1,0-30.6,17.7-36.6,50.1l-12.3,65.1H1612.04z"/>
	<path class="st1" d="M1781.24,606.75c0-15.9,12-30,28.8-30c14.7,0,24.9,10.5,24.9,25.2c0,17.1-12.6,29.4-29.4,29.4
		C1790.84,631.35,1781.24,620.85,1781.24,606.75z M1798.94,561.75l19.5-135.9h46.5l-32.7,135.9H1798.94z"/>
</g>
</svg>
