<?xml version="1.0" encoding="utf-8"?>
<!-- Generator: Adobe Illustrator 26.1.0, SVG Export Plug-In . SVG Version: 6.00 Build 0)  -->
<svg version="1.1" id="Layer_1" xmlns="http://www.w3.org/2000/svg" xmlns:xlink="http://www.w3.org/1999/xlink" x="0px" y="0px"
	 viewBox="0 0 1935.9 757.2" style="enable-background:new 0 0 1935.9 757.2;" xml:space="preserve">
<style type="text/css">
	.st0{enable-background:new    ;}
	.st1{fill:#C1272D;}
</style>
<g>
	<g id="_x3C_Path_x3E__xA0__x2B__xA0__x3C_Path_x3E__xA0_Image_00000013873295588034955950000000020223666493276816_">
		
			<image style="overflow:visible;enable-background:new    ;" width="3864" height="4506" id="_x3C_Path_x3E__xA0__x2B__xA0__x3C_Path_x3E__xA0_Image" xlink:href="A9C4C858.png"  transform="matrix(0.168 0 0 0.168 49.011 0)">
		</image>
	</g>
	<g id="_x3C_Group_x3E__xA0_Image_00000014600693708371844770000011445045658594064784_">
		
			<image style="overflow:visible;enable-background:new    ;" width="4344" height="2336" id="_x3C_Group_x3E__xA0_Image" xlink:href="A9C4C85B.png"  transform="matrix(0.1677 0 0 0.1677 0.4904 182.8213)">
		</image>
	</g>
</g>
<g class="st0">
	<path class="st1" d="M838.8,280.3l-48-202.2h48.9l15.3,83.4c4.5,24,8.7,50.1,12,70.5h0.6c3.3-21.9,8.1-46.2,13.2-71.1l17.1-82.8
		h48.6l16.2,85.2c4.5,23.7,7.8,45.3,10.8,67.8h0.6c3-22.5,7.5-46.2,11.7-70.2l16.5-82.8h46.5l-52.2,202.2h-49.5l-17.1-87
		c-3.9-20.4-7.2-39.3-9.6-62.4h-0.6c-3.6,22.8-6.9,42-11.7,62.4l-19.2,87H838.8z"/>
	<path class="st1" d="M1093.5,221.5c1.5,18.9,20.1,27.9,41.4,27.9c15.6,0,28.2-2.1,40.5-6l6,30.9c-15,6-33.3,9-53.1,9
		c-49.8,0-78.3-28.8-78.3-74.7c0-37.2,23.1-78.3,74.1-78.3c47.4,0,65.4,36.9,65.4,73.2c0,7.8-0.9,14.7-1.5,18H1093.5z M1147.2,190.3
		c0-11.1-4.8-29.7-25.8-29.7c-19.2,0-27,17.4-28.2,29.7H1147.2z"/>
	<path class="st1" d="M1215.6,280.3c0.6-9.6,1.2-27.3,1.2-43.8V67.3h45.6V151h0.6c8.7-12.6,24-20.7,44.4-20.7
		c35.1,0,60.9,29.1,60.6,74.1c0,52.8-33.6,79.2-67.2,79.2c-17.1,0-33.6-6.3-44.1-23.7h-0.6l-1.8,20.4H1215.6z M1262.4,217.9
		c0,3,0.3,5.7,0.9,8.1c3,12.3,13.5,21.6,26.7,21.6c19.5,0,31.5-15,31.5-41.4c0-22.8-10.2-40.8-31.5-40.8c-12.3,0-23.7,9.3-26.7,22.5
		c-0.6,2.7-0.9,5.4-0.9,8.4V217.9z"/>
	<path class="st1" d="M1395.9,240.4c8.4,5.1,25.8,11.1,39.3,11.1c13.8,0,19.5-4.8,19.5-12.3s-4.5-11.1-21.6-16.8
		c-30.3-10.2-42-26.7-41.7-44.1c0-27.3,23.4-48,59.7-48c17.1,0,32.4,3.9,41.4,8.4l-8.1,31.5c-6.6-3.6-19.2-8.4-31.8-8.4
		c-11.1,0-17.4,4.5-17.4,12c0,6.9,5.7,10.5,23.7,16.8c27.9,9.6,39.6,23.7,39.9,45.3c0,27.3-21.6,47.4-63.6,47.4
		c-19.2,0-36.3-4.2-47.4-10.2L1395.9,240.4z"/>
	<path class="st1" d="M1573.5,92.8c0,12.6-9.6,22.8-24.6,22.8c-14.4,0-24-10.2-23.7-22.8c-0.3-13.2,9.3-23.1,24-23.1
		S1573.2,79.6,1573.5,92.8z M1526.4,280.3V133.6h45.6v146.7L1526.4,280.3L1526.4,280.3z"/>
	<path class="st1" d="M1659.6,91.6v42h32.7v33.6h-32.7v53.1c0,17.7,4.2,25.8,18,25.8c5.7,0,10.2-0.6,13.5-1.2l0.3,34.5
		c-6,2.4-16.8,3.9-29.7,3.9c-14.7,0-27-5.1-34.2-12.6c-8.4-8.7-12.6-22.8-12.6-43.5v-60h-19.5v-33.6h19.5v-31.8L1659.6,91.6z"/>
	<path class="st1" d="M1752.3,221.5c1.5,18.9,20.1,27.9,41.4,27.9c15.6,0,28.2-2.1,40.5-6l6,30.9c-15,6-33.3,9-53.1,9
		c-49.8,0-78.3-28.8-78.3-74.7c0-37.2,23.1-78.3,74.1-78.3c47.4,0,65.4,36.9,65.4,73.2c0,7.8-0.9,14.7-1.5,18H1752.3z M1806,190.3
		c0-11.1-4.8-29.7-25.8-29.7c-19.2,0-27,17.4-28.2,29.7H1806z"/>
</g>
<g class="st0">
	<path class="st1" d="M861.8,439.8c16.8-2.7,38.7-4.2,61.8-4.2c38.4,0,63.3,6.9,82.8,21.6c21,15.6,34.2,40.5,34.2,76.2
		c0,38.7-14.1,65.4-33.6,81.9c-21.3,17.7-53.7,26.1-93.3,26.1c-23.7,0-40.5-1.5-51.9-3V439.8z M907.7,604.8
		c3.9,0.9,10.2,0.9,15.9,0.9C965,606,992,583.2,992,534.9c0.3-42-24.3-64.2-63.6-64.2c-10.2,0-16.8,0.9-20.7,1.8L907.7,604.8
		L907.7,604.8z"/>
	<path class="st1" d="M1104.2,580.5c1.5,18.9,20.1,27.9,41.4,27.9c15.6,0,28.2-2.1,40.5-6l6,30.9c-15,6-33.3,9-53.1,9
		c-49.8,0-78.3-28.8-78.3-74.7c0-37.2,23.1-78.3,74.1-78.3c47.4,0,65.4,36.9,65.4,73.2c0,7.8-0.9,14.7-1.5,18L1104.2,580.5
		L1104.2,580.5z M1157.9,549.3c0-11.1-4.8-29.7-25.8-29.7c-19.2,0-27,17.4-28.2,29.7H1157.9z"/>
	<path class="st1" d="M1227.2,599.4c8.4,5.1,25.8,11.1,39.3,11.1c13.8,0,19.5-4.8,19.5-12.3s-4.5-11.1-21.6-16.8
		c-30.3-10.2-42-26.7-41.7-44.1c0-27.3,23.4-48,59.7-48c17.1,0,32.4,3.9,41.4,8.4l-8.1,31.5c-6.6-3.6-19.2-8.4-31.8-8.4
		c-11.1,0-17.4,4.5-17.4,12c0,6.9,5.7,10.5,23.7,16.8c27.9,9.6,39.6,23.7,39.9,45.3c0,27.3-21.6,47.4-63.6,47.4
		c-19.2,0-36.3-4.2-47.4-10.2L1227.2,599.4z"/>
	<path class="st1" d="M1404.8,451.8c0,12.6-9.6,22.8-24.6,22.8c-14.4,0-24-10.2-23.7-22.8c-0.3-13.2,9.3-23.1,24-23.1
		S1404.5,438.6,1404.8,451.8z M1357.7,639.3V492.6h45.6v146.7H1357.7z"/>
	<path class="st1" d="M1580,492.6c-0.6,9.3-1.2,21.6-1.2,43.5V618c0,28.2-5.7,51.3-22.2,66c-16.2,13.8-38.1,18-59.7,18
		c-19.2,0-39.6-3.9-52.8-11.4l9-34.5c9.3,5.4,25.5,11.1,42.6,11.1c21.6,0,38.1-11.7,38.1-38.7v-9.6h-0.6
		c-8.7,12.3-22.8,19.2-39.6,19.2c-36.3,0-62.1-29.4-62.1-71.7c0-47.1,30.6-77.1,66.6-77.1c20.1,0,32.7,8.7,40.2,20.7h0.6l1.5-17.4
		H1580z M1533.2,552.3c0-3-0.3-6-0.9-8.4c-3.3-12-12-20.1-24.6-20.1c-16.5,0-30,15-30,41.7c0,21.9,10.8,39,30,39
		c11.7,0,21-7.8,24-18.6c1.2-3.3,1.5-8.1,1.5-12V552.3z"/>
	<path class="st1" d="M1615.4,539.4c0-18.3-0.6-33.9-1.2-46.8h39.6l2.1,20.1h0.9c6-9.3,21-23.4,45.3-23.4c30,0,52.5,19.8,52.5,63v87
		H1709V558c0-18.9-6.6-31.8-23.1-31.8c-12.6,0-20.1,8.7-23.1,17.1c-1.2,2.7-1.8,7.2-1.8,11.4v84.6h-45.6L1615.4,539.4L1615.4,539.4z
		"/>
</g>
</svg>
